# xmcd
#
# Track frame offsets:
#	150
#	13142
#	26872
#	38647
#	51247
#	63969
#	79106
#	90566
#	101649
#	115121
#	128614
#	141814
#	156771
#	170726
#	185800
#	196791
#	210731
#	222164
#	242744
#	259021
#
# Disc length: 3637 seconds
#
# Revision: 0
# Processed by: cddbd v1.5.2PL0 Copyright (c) Steve Scherf et al.
# Submitted via: dBpowerAMP V4.0
#
DISCID=190e3314
DTITLE=Varios - Los 100 mejores boleros de la historia
DYEAR=1900
DGENRE=
TTITLE0=501 Solamente una vez (Boleros Bengalíes)
TTITLE1=502 Media vuelta (Paula Monsalve)
TTITLE2=503 Te fuiste (Los Tres Reyes)
TTITLE3=504 Has vuelto a mí (Vicentico Valdés)
TTITLE4=505 Encadenados (Moncho)
TTITLE5=506 Noche de ronda (Graciela)
TTITLE6=507 Tengo una debilidad (Antonio Machín)
TTITLE7=508 Mil noches (Los Jaibos)
TTITLE8=509  Algo hay en ti (Vicentico Valdés)
TTITLE9=510 Ella, ella (Bobby Capó)
TTITLE10=511 Así son los quereres (La Sonora Matancera)
TTITLE11=512 Dos cruces (Nati Mistral)
TTITLE12=513 Corazón, corazón (Hermanos Michel)
TTITLE13=514 Repetidamente (Son Boleros)
TTITLE14=515 Me lo dijo Adela (Bobby Capó)
TTITLE15=516 Mía (Boleros Bengalíes)
TTITLE16=517 No seas así (Vicentico Valdés)
TTITLE17=518 Lejos de ti (Son Boleros)
TTITLE18=519 Cómo te atreves (Frank Dominguez)
TTITLE19=520 Una cita de amor (Ramón Aguirre)
EXTD=
EXTT0=
EXTT1=
EXTT2=
EXTT3=
EXTT4=
EXTT5=
EXTT6=
EXTT7=
EXTT8=
EXTT9=
EXTT10=
EXTT11=
EXTT12=
EXTT13=
EXTT14=
EXTT15=
EXTT16=
EXTT17=
EXTT18=
EXTT19=
PLAYORDER=
